<svg xmlns="http://www.w3.org/2000/svg" version="1.1" xmlns:xlink="http://www.w3.org/1999/xlink"
  x="0" y="0" viewBox="0 0 511.881 511.881"
  style="enable-background:new 0 0 512 512" xml:space="preserve" className="">
  <g>
    <path fill="#00875f" d="M44.862 237.578c0 99.114 80.347 179.461 179.461 179.461h152.661v-38.428l75.084 59.852-75.084 63.478V464.22H224.323c-99.113 0-179.461-80.347-179.461-179.461z" opacity="1" dataOriginal="#49dd8a" className=""></path>
    <path fill="#e1e1e6" d="M467.02 274.302c0-99.114-80.347-179.461-179.461-179.461H124.896v38.428L49.812 73.417 124.896 9.94v37.719h162.663c99.113 0 179.461 80.347 179.461 179.461z" opacity="1" dataOriginal="#8cc8ff" className=""></path>
    <circle cx="256.421" cy="256.4" r="118.495" fill="#ffc135" opacity="1" dataOriginal="#ffc135" className=""></circle>
    <path d="m458.301 430.643-75.084-59.852c-6.428-5.125-16.233-.382-16.233 7.819v28.428H224.322c-93.441 0-169.461-76.02-169.461-169.461 0-5.522-4.478-10-10-10s-10 4.478-10 10v47.183c0 104.469 84.992 189.46 189.461 189.46h142.661v27.72c0 8.314 10.068 13.038 16.456 7.637l75.084-63.478c4.74-4.006 4.632-11.588-.222-15.456zm-71.317 49.748V464.22c0-5.522-4.478-10-10-10H224.322c-75.22 0-139.151-49.266-161.225-117.222 33.419 53.998 93.189 90.04 161.225 90.04h152.661c5.522 0 10-4.478 10-10V399.37l49.326 39.319zM287.559 37.66H134.896V9.94c0-8.33-10.08-13.028-16.456-7.637L43.356 65.781a10.002 10.002 0 0 0 .223 15.456l75.084 59.852c6.428 5.125 16.233.382 16.233-7.819v-28.428h78.184c5.974 0 10.728-5.451 9.905-11.374-.712-5.347-5.548-9.161-10.909-8.626h-87.18c-5.522 0-10 4.478-10 10v17.668L65.57 73.19l49.326-41.701V47.66c0 5.522 4.478 10 10 10h162.663c75.105 0 138.957 49.116 161.123 116.912a190.059 190.059 0 0 0-22.318-29.221c-32.415-34.876-76.29-56.142-123.583-59.903-5.842-.642-11.109 4.061-11.109 9.943a10 10 0 0 0 9.225 9.97c42.398 3.299 81.755 22.336 110.818 53.606 29.216 31.433 45.306 72.394 45.306 115.335 0 5.522 4.478 10 10 10s10-4.478 10-10V227.12c-.001-104.469-84.993-189.46-189.462-189.46z" fill="#000000" opacity="1" dataOriginal="#000000" className=""></path>
    <path d="M127.926 256.4c0 70.853 57.643 128.495 128.495 128.495S384.916 327.252 384.916 256.4s-57.643-128.495-128.495-128.495S127.926 185.547 127.926 256.4zm128.495-108.495c59.824 0 108.495 48.671 108.495 108.495s-48.671 108.495-108.495 108.495S147.926 316.224 147.926 256.4s48.671-108.495 108.495-108.495zM259.13 104.65c8.97-1.819 10.902-14.29 2.762-18.621-3.837-2.041-8.702-1.337-11.781 1.742-2.996 2.996-3.759 7.699-1.891 11.49 1.965 3.989 6.533 6.278 10.91 5.389z" fill="#000000" opacity="1" dataOriginal="#000000" className=""></path>
    <path d="M274.872 245.608a428.172 428.172 0 0 1-7.309-2.649v-40.68c5.604 1.599 8.96 4.367 9.397 4.743a9.94 9.94 0 0 0 6.785 2.673c5.516 0 9.987-4.471 9.987-9.987a9.95 9.95 0 0 0-3.292-7.395l.034-.037c-.515-.474-9.004-8.112-22.911-10.456v-2.835c0-5.522-4.478-10-10-10s-10 4.478-10 10v3.571a56.81 56.81 0 0 0-3.382.894c-13.502 4.066-23.584 15.311-26.313 29.343-2.513 12.919 1.724 25.24 11.331 32.958 4.948 3.975 11.088 7.403 18.364 10.663v52.308c-6.518-.607-10.896-2.388-18.169-7.146-4.622-3.023-10.82-1.727-13.843 2.894-3.023 4.622-1.729 10.819 2.894 13.843 11.367 7.437 19.232 9.796 29.118 10.458v4.625c0 5.522 4.478 10 10 10s10-4.478 10-10v-5.517c19.448-4.339 31.935-20.686 34.646-36.809 3.451-20.528-7.279-38.371-27.337-45.462zm-27.308-11.555c-6.823-3.914-11.702-9.016-10.063-17.442.912-4.685 4.031-10.294 10.063-13.094zm34.923 53.699c-1.272 7.568-6.339 15.587-14.923 19.232v-42.749c10.307 3.654 16.786 12.43 14.923 23.517z" fill="#000000" opacity="1" dataOriginal="#000000" className=""></path>
  </g>
</svg>